<svg width="36" height="36" viewBox="0 0 36 36" fill="none" xmlns="http://www.w3.org/2000/svg">
<path d="M29.5363 4.875H6.20296C5.81619 4.875 5.44526 5.02865 5.17176 5.30214C4.89827 5.57563 4.74463 5.94656 4.74463 6.33333V29.6667C4.74463 30.0534 4.89827 30.4244 5.17176 30.6979C5.44526 30.9714 5.81619 31.125 6.20296 31.125H29.5363C29.9231 31.125 30.294 30.9714 30.5675 30.6979C30.841 30.4244 30.9946 30.0534 30.9946 29.6667V6.33333C30.9946 5.94656 30.841 5.57563 30.5675 5.30214C30.294 5.02865 29.9231 4.875 29.5363 4.875ZM12.5307 27.2415H8.634V14.7144H12.5307V27.2415ZM10.5823 13.0038C9.98361 13.0038 9.40941 12.7659 8.98604 12.3425C8.56268 11.9192 8.32484 11.345 8.32484 10.7463C8.32484 10.1475 8.56268 9.57332 8.98604 9.14996C9.40941 8.72659 9.98361 8.48875 10.5823 8.48875C11.1811 8.48875 11.7553 8.72659 12.1786 9.14996C12.602 9.57332 12.8398 10.1475 12.8398 10.7463C12.8398 11.345 12.602 11.9192 12.1786 12.3425C11.7553 12.7659 11.1811 13.0038 10.5823 13.0038ZM27.1125 27.2415H23.2203V21.15C23.2203 19.6975 23.194 17.8294 21.1961 17.8294C19.169 17.8294 18.8613 19.4131 18.8613 21.0479V27.2429H14.9719V14.7158H18.7053V16.4279H18.7592C19.2769 15.4435 20.5486 14.4052 22.44 14.4052C26.3834 14.4052 27.1111 16.9981 27.1111 20.3727V27.2415H27.1125Z" fill="#FFFCF1"/>
</svg>
