<svg width="49" height="59" viewBox="0 0 49 59" fill="none" xmlns="http://www.w3.org/2000/svg">
<path d="M3.54001 22.4408L23.1507 2.83013C24.1508 1.83003 25.7722 1.83003 26.7723 2.83012L45.6329 21.6907C46.1132 22.171 46.383 22.8223 46.383 23.5015V54.4199C46.383 55.8342 45.2364 56.9808 43.8221 56.9808H4.19128C2.77693 56.9808 1.63037 55.8342 1.63037 54.4199V37.6164C1.63037 36.9372 1.90018 36.2859 2.38044 35.8056L14.8063 23.3798C15.8064 22.3797 17.4264 22.3783 18.4265 23.3784C22.2445 27.1964 27.8828 32.8346 31.3547 36.3066M27.2863 40.9562C24.7954 43.0319 24.5337 50.2555 31.3547 50.2555C37.1486 50.2555 37.4158 42.4507 33.5135 38.4653C32.6794 37.6135 32.2354 37.1872 31.3547 36.3066M31.3547 36.3066V24.8486M31.3547 15.7154V19.2856M31.3547 19.2856H24.9615M31.3547 19.2856V24.8486M31.3547 24.8486H27.2863" stroke="#FFFCF1" stroke-width="3.27912" stroke-linecap="round"/>
<rect x="22.7419" y="8.72754" width="4.02719" height="4.02719" rx="2.0136" fill="#FFFCF1"/>
<rect x="14.711" y="30.7305" width="4.02719" height="4.02719" rx="2.0136" fill="#FFFCF1"/>
</svg>
