<svg width="36" height="36" viewBox="0 0 36 36" fill="none" xmlns="http://www.w3.org/2000/svg">
<path d="M30.9173 12.6116C30.9026 11.5071 30.6958 10.4135 30.3063 9.37991C29.9685 8.50805 29.4525 7.71624 28.7913 7.05508C28.1302 6.39392 27.3383 5.87794 26.4665 5.54012C25.4461 5.1571 24.3682 4.94999 23.2786 4.92762C21.8757 4.86491 21.4309 4.84741 17.8696 4.84741C14.3084 4.84741 13.8519 4.84741 12.4592 4.92762C11.37 4.95016 10.2926 5.15726 9.27273 5.54012C8.40074 5.87771 7.60881 6.3936 6.94762 7.05479C6.28642 7.71598 5.77053 8.50791 5.43294 9.37991C5.04915 10.3995 4.8425 11.4772 4.8219 12.5664C4.75919 13.9707 4.74023 14.4155 4.74023 17.9768C4.74023 21.538 4.74023 21.993 4.8219 23.3872C4.84378 24.478 5.0494 25.5543 5.43294 26.5766C5.7711 27.4483 6.28737 28.2399 6.94879 28.9008C7.6102 29.5617 8.4022 30.0774 9.27419 30.4149C10.2913 30.8133 11.3689 31.0353 12.4607 31.0712C13.865 31.1339 14.3098 31.1528 17.8711 31.1528C21.4323 31.1528 21.8888 31.1528 23.2815 31.0712C24.3711 31.0497 25.4491 30.8431 26.4694 30.4601C27.341 30.1219 28.1326 29.6058 28.7938 28.9447C29.4549 28.2836 29.971 27.492 30.3092 26.6203C30.6927 25.5995 30.8984 24.5232 30.9202 23.431C30.9829 22.028 31.0019 21.5832 31.0019 18.0205C30.999 14.4593 30.999 14.0072 30.9173 12.6116ZM17.8609 24.7114C14.1363 24.7114 11.119 21.6941 11.119 17.9695C11.119 14.2449 14.1363 11.2276 17.8609 11.2276C19.6489 11.2276 21.3637 11.9379 22.6281 13.2023C23.8924 14.4666 24.6027 16.1814 24.6027 17.9695C24.6027 19.7576 23.8924 21.4724 22.6281 22.7367C21.3637 24.0011 19.6489 24.7114 17.8609 24.7114ZM24.8711 12.5503C24.6646 12.5505 24.4601 12.51 24.2692 12.4311C24.0784 12.3521 23.905 12.2363 23.759 12.0903C23.613 11.9443 23.4972 11.7709 23.4183 11.5801C23.3393 11.3893 23.2988 11.1847 23.299 10.9782C23.299 10.7719 23.3396 10.5676 23.4186 10.3769C23.4976 10.1863 23.6133 10.013 23.7592 9.86713C23.9051 9.72122 24.0784 9.60547 24.269 9.5265C24.4597 9.44754 24.664 9.40689 24.8703 9.40689C25.0767 9.40689 25.281 9.44754 25.4717 9.5265C25.6623 9.60547 25.8355 9.72122 25.9815 9.86713C26.1274 10.013 26.2431 10.1863 26.3221 10.3769C26.401 10.5676 26.4417 10.7719 26.4417 10.9782C26.4417 11.8474 25.7388 12.5503 24.8711 12.5503Z" fill="#FFFCF1"/>
<path d="M17.8609 22.3488C20.2795 22.3488 22.2403 20.3881 22.2403 17.9695C22.2403 15.5508 20.2795 13.5901 17.8609 13.5901C15.4422 13.5901 13.4815 15.5508 13.4815 17.9695C13.4815 20.3881 15.4422 22.3488 17.8609 22.3488Z" fill="#FFFCF1"/>
</svg>
