<svg width="298" height="361" viewBox="0 0 298 361" fill="none" xmlns="http://www.w3.org/2000/svg">
<path d="M22.8724 136.378L144.129 15.1208C150.313 8.93698 160.339 8.93699 166.523 15.1208L283.142 131.74C286.111 134.709 287.78 138.737 287.78 142.937V334.111C287.78 342.857 280.69 349.946 271.945 349.946H26.8994C18.1541 349.946 11.0647 342.857 11.0647 334.111V230.212C11.0647 226.012 12.733 221.985 15.7026 219.015L92.534 142.184C98.7178 136 108.735 135.991 114.919 142.175C138.526 165.783 173.389 200.645 194.857 222.113M169.701 250.863C154.299 263.697 152.681 308.362 194.857 308.362C230.682 308.362 232.334 260.104 208.205 235.461C203.047 230.194 200.302 227.558 194.857 222.113M194.857 222.113V151.266M194.857 94.7932V116.869M194.857 116.869H155.326M194.857 116.869V151.266M194.857 151.266H169.701" stroke="#FFFCF1" stroke-width="20.2755" stroke-linecap="round"/>
<rect x="141.602" y="51.5856" width="24.901" height="24.901" rx="12.4505" fill="#FFFCF1"/>
<rect x="91.945" y="187.635" width="24.901" height="24.901" rx="12.4505" fill="#FFFCF1"/>
</svg>
