<svg width="20" height="24" viewBox="0 0 20 24" fill="none" xmlns="http://www.w3.org/2000/svg">
<path d="M2.15292 9.11455L9.81061 1.45686C10.2011 1.06634 10.8343 1.06634 11.2248 1.45686L18.5896 8.82166C18.7772 9.0092 18.8825 9.26355 18.8825 9.52877V21.602C18.8825 22.1542 18.4348 22.602 17.8825 22.602H2.40723C1.85494 22.602 1.40723 22.1542 1.40723 21.602V15.0404C1.40723 14.7752 1.51258 14.5209 1.70012 14.3333L6.55223 9.48122C6.94275 9.0907 7.57537 9.09015 7.96589 9.48068C9.45677 10.9716 11.6584 13.1732 13.0142 14.529M11.4255 16.3446C10.4529 17.1551 10.3507 19.9758 13.0142 19.9758C15.2766 19.9758 15.381 16.9282 13.8571 15.3719C13.5314 15.0393 13.3581 14.8728 13.0142 14.529M13.0142 14.529V10.0548M13.0142 6.48839V7.88252M13.0142 7.88252H10.5177M13.0142 7.88252V10.0548M13.0142 10.0548H11.4255" stroke="#003C41" stroke-width="1.5" stroke-linecap="round"/>
<rect x="9.651" y="3.75977" width="1.57256" height="1.57256" rx="0.786281" fill="#003C41"/>
<rect x="6.51501" y="12.3516" width="1.57256" height="1.57256" rx="0.786281" fill="#003C41"/>
</svg>
